<svg width="410" height="118" viewBox="0 0 410 118" fill="none" xmlns="http://www.w3.org/2000/svg">
<g clip-path="url(#clip0_306_28)">
<path d="M261.903 54.4893L262.35 107.567C259.164 110.034 197.244 107.567 197.244 107.567C193.853 107.259 195.603 54.996 195.603 54.996L227.471 10.3819H233.89L262.965 49.193L261.903 54.4893Z" fill="#047218" stroke="#73FF91"/>
<path d="M213.467 12.4871L191.796 52.5348C191.796 52.5348 188.405 57.7708 195.597 55.002C195.597 55.002 206.686 54.8995 210.179 44.5301L227.948 14.1399C227.948 14.1399 230.101 8.69891 232.261 13.9349L253.004 50.695C253.004 50.695 253.312 52.8485 260.19 53.9826L266.247 55.8164C266.247 55.8164 270.971 57.6743 266.965 52.3358L250.331 21.4208V1.09232H241.812L241.504 10.6413C241.504 10.6413 235.242 5.81552 215.115 10.4362L213.467 12.4871Z" fill="#047218" stroke="#73FF91" stroke-miterlimit="10"/>
<path d="M233.209 25.3236H227.459C227.049 25.3236 226.717 24.9858 226.717 24.5817C226.717 24.1715 227.055 23.8397 227.459 23.8397H233.209C233.619 23.8397 233.951 24.1775 233.951 24.5817C233.957 24.9858 233.619 25.3236 233.209 25.3236Z" fill="#047218" stroke="#73FF91" stroke-miterlimit="10"/>
<path d="M213.618 60.2078H208.87C208.46 60.2078 208.128 59.87 208.128 59.4658C208.128 59.0556 208.466 58.7239 208.87 58.7239H213.618C214.029 58.7239 214.36 59.0617 214.36 59.4658C214.366 59.87 214.029 60.2078 213.618 60.2078Z" fill="#047218" stroke="#73FF91" stroke-miterlimit="10"/>
<path d="M248.588 61.185H243.839C243.429 61.185 243.097 60.8472 243.097 60.4431C243.097 60.0329 243.435 59.7011 243.839 59.7011H248.588C248.998 59.7011 249.33 60.0389 249.33 60.4431C249.33 60.8472 248.998 61.185 248.588 61.185Z" fill="#047218" stroke="#73FF91" stroke-miterlimit="10"/>
<path d="M229.788 29.5582C220.641 29.1722 219.06 39.264 219.06 39.264V54.0489H229.788" fill="#047218"/>
<path d="M229.788 29.5582C220.641 29.1722 219.06 39.264 219.06 39.264V54.0489H229.788" stroke="#73FF91" stroke-miterlimit="10"/>
<path d="M229.788 54.0489H240.515V39.264C240.515 39.264 238.934 29.1782 229.788 29.5582V54.0489Z" fill="#047218" stroke="#73FF91" stroke-miterlimit="10"/>
<path d="M205.25 66.8553C202.119 66.6984 201.811 71.114 201.811 71.114V90.9841H205.25" fill="#047218"/>
<path d="M205.25 66.8553C202.119 66.6984 201.811 71.114 201.811 71.114V90.9841H205.25" stroke="#73FF91" stroke-miterlimit="10"/>
<path d="M205.25 66.8553C208.381 66.6984 208.689 71.114 208.689 71.114V90.9841H205.25" fill="#047218"/>
<path d="M205.25 66.8553C208.381 66.6984 208.689 71.114 208.689 71.114V90.9841H205.25" stroke="#73FF91" stroke-miterlimit="10"/>
<path d="M252.467 66.8553C249.336 66.6984 249.028 71.114 249.028 71.114V90.9841H252.467" fill="#047218"/>
<path d="M252.467 66.8553C249.336 66.6984 249.028 71.114 249.028 71.114V90.9841H252.467" stroke="#73FF91" stroke-miterlimit="10"/>
<path d="M252.467 66.8553C255.598 66.6984 255.906 71.114 255.906 71.114V90.9841H252.467" fill="#047218"/>
<path d="M252.467 66.8553C255.598 66.6984 255.906 71.114 255.906 71.114V90.9841H252.467" stroke="#73FF91" stroke-miterlimit="10"/>
<path d="M214.71 69.8714C214.71 69.8714 213.938 66.5235 216.484 68.5986L222.029 73.0624C222.029 73.0624 227.344 71.3312 231.851 71.7534L235.049 65.1301C235.049 65.1301 235.972 62.4337 237.088 65.1301C237.088 65.1301 240.479 75.5658 240.708 78.0269C240.708 78.0269 244.6 77.6408 244.557 78.606C244.557 78.606 244.714 79.2936 240.708 78.9136C240.708 78.9136 240.823 80.3794 240.479 80.6871C240.479 80.6871 244.636 81.61 244.328 82.1107C244.328 82.1107 245.48 82.8044 240.243 81.803C240.243 81.803 239.586 85.5008 233.54 87.4612C233.54 87.4612 240.111 98.3192 237.287 109.768C237.287 109.768 242.114 109.304 241.704 111.512C241.293 113.719 237.697 113.924 237.697 113.924L216.134 114.902C216.134 114.902 208.792 113.514 211.308 102.783C211.308 102.783 212.846 94.9773 209.817 94.3621C209.817 94.3621 203.862 91.4847 210.228 90.5135C210.228 90.5135 215.416 91.5933 214.849 98.2166C214.849 98.2166 210.843 109.358 217.003 110.384C217.003 110.384 214.282 102.065 218.904 98.5243C218.904 98.5243 221.214 88.4083 223.06 88.4083C223.06 88.4083 217.081 88.1007 215.694 84.3547L213.021 85.6395C213.021 85.6395 211.428 86.1643 212.327 84.8795L215.163 83.4921C215.163 83.4921 214.789 82.2856 215.048 82.2072L211.875 82.8225C211.875 82.8225 210.565 82.6656 211.633 81.9237L214.891 81.2059L214.71 69.8714Z" fill="#047218" stroke="#73FF91"/>
<path d="M221.347 78.6663C221.347 78.6663 221.733 81.3386 223.091 80.7957C223.091 80.7957 224.321 80.7414 223.965 78.0751" fill="#047218"/>
<path d="M221.347 78.6663C221.347 78.6663 221.733 81.3386 223.091 80.7957C223.091 80.7957 224.321 80.7414 223.965 78.0751" stroke="#73FF91" stroke-miterlimit="10"/>
<path d="M231.23 78.0752C231.23 78.0752 231.175 80.1563 232.822 79.9753C232.822 79.9753 234.029 79.8969 233.872 77.4599" fill="#047218"/>
<path d="M231.23 78.0752C231.23 78.0752 231.175 80.1563 232.822 79.9753C232.822 79.9753 234.029 79.8969 233.872 77.4599" stroke="#73FF91" stroke-miterlimit="10"/>
<path d="M228.171 83.6006C228.171 83.6006 227.748 84.2039 226.765 84.0651L228.171 83.6006Z" fill="#047218"/>
<path d="M228.171 83.6006C228.171 83.6006 227.748 84.2039 226.765 84.0651" stroke="#73FF91" stroke-miterlimit="10"/>
<path d="M228.171 82.5028L227.266 82.0624C227.284 82.0021 229.076 82.0624 229.076 82.0624L228.171 82.5028V83.6006C228.171 83.6006 228.943 84.3728 229.751 83.9264" fill="#047218"/>
<path d="M228.171 82.5028L227.266 82.0624C227.284 82.0021 229.076 82.0624 229.076 82.0624L228.171 82.5028ZM228.171 82.5028V83.6006C228.171 83.6006 228.943 84.3728 229.751 83.9264" stroke="#73FF91" stroke-miterlimit="10"/>
<path d="M201.811 75.0168H208.689" stroke="#73FF91" stroke-miterlimit="10"/>
<path d="M249.022 75.0168H255.906" stroke="#73FF91" stroke-miterlimit="10"/>
<path d="M219.06 39.264H240.515" stroke="#73FF91" stroke-miterlimit="10"/>
</g>
<path d="M12.654 29.47C15.238 29.47 17.3533 30.2427 19 31.788C20.6467 33.308 21.47 35.284 21.47 37.716C21.47 40.1733 20.6467 42.1747 19 43.72C17.3533 45.24 15.238 46 12.654 46H2.47V19.4H19.19V24.416H7.714V29.47H12.654ZM12.654 41.098C13.6927 41.098 14.554 40.8067 15.238 40.224C15.922 39.616 16.264 38.78 16.264 37.716C16.264 36.652 15.922 35.8287 15.238 35.246C14.554 34.6633 13.6927 34.372 12.654 34.372H7.714V41.098H12.654ZM46.795 42.542C44.1096 45.202 40.8416 46.532 36.991 46.532C33.1403 46.532 29.8723 45.202 27.187 42.542C24.527 39.8567 23.197 36.576 23.197 32.7C23.197 28.824 24.527 25.556 27.187 22.896C29.8723 20.2107 33.1403 18.868 36.991 18.868C40.8416 18.868 44.1096 20.2107 46.795 22.896C49.4803 25.556 50.823 28.824 50.823 32.7C50.823 36.576 49.4803 39.8567 46.795 42.542ZM30.873 38.97C32.5196 40.5913 34.559 41.402 36.991 41.402C39.423 41.402 41.4623 40.5913 43.109 38.97C44.7556 37.3233 45.579 35.2333 45.579 32.7C45.579 30.1667 44.7556 28.0767 43.109 26.43C41.4623 24.7833 39.423 23.96 36.991 23.96C34.559 23.96 32.5196 24.7833 30.873 26.43C29.2263 28.0767 28.403 30.1667 28.403 32.7C28.403 35.2333 29.2263 37.3233 30.873 38.97ZM50.8352 46V41.136C52.4059 41.364 53.5839 41.0473 54.3692 40.186C55.1545 39.3247 55.5472 37.64 55.5472 35.132V19.4H73.6352V46H68.4292V24.416H60.7532V34.98C60.7532 37.2853 60.4745 39.2233 59.9172 40.794C59.3599 42.3647 58.5872 43.53 57.5992 44.29C56.6365 45.05 55.5979 45.5567 54.4832 45.81C53.3939 46.0633 52.1779 46.1267 50.8352 46ZM88.3849 28.14C90.9435 28.14 93.0969 29.0013 94.8449 30.724C96.5929 32.4467 97.4669 34.562 97.4669 37.07C97.4669 39.578 96.5929 41.6933 94.8449 43.416C93.0969 45.1387 90.9435 46 88.3849 46H78.4669V19.4H83.7109V28.14H88.3849ZM88.3849 41.098C89.4995 41.098 90.4242 40.718 91.1589 39.958C91.8935 39.198 92.2609 38.2353 92.2609 37.07C92.2609 35.93 91.8935 34.98 91.1589 34.22C90.4242 33.4347 89.4995 33.042 88.3849 33.042H83.7109V41.098H88.3849ZM126.431 19.4H131.675V46H100.781V19.4H106.025V40.984H113.625V19.4H118.831V40.984H126.431V19.4ZM158.911 42.542C156.225 45.202 152.957 46.532 149.107 46.532C145.256 46.532 141.988 45.202 139.303 42.542C136.643 39.8567 135.313 36.576 135.313 32.7C135.313 28.824 136.643 25.556 139.303 22.896C141.988 20.2107 145.256 18.868 149.107 18.868C152.957 18.868 156.225 20.2107 158.911 22.896C161.596 25.556 162.939 28.824 162.939 32.7C162.939 36.576 161.596 39.8567 158.911 42.542ZM142.989 38.97C144.635 40.5913 146.675 41.402 149.107 41.402C151.539 41.402 153.578 40.5913 155.225 38.97C156.871 37.3233 157.695 35.2333 157.695 32.7C157.695 30.1667 156.871 28.0767 155.225 26.43C153.578 24.7833 151.539 23.96 149.107 23.96C146.675 23.96 144.635 24.7833 142.989 26.43C141.342 28.0767 140.519 30.1667 140.519 32.7C140.519 35.2333 141.342 37.3233 142.989 38.97ZM171.312 16.968V12.712H182.332V16.968H171.312ZM181.914 46V29.774L170.514 46H166.524V19.4H171.768V35.664L183.168 19.4H187.158V46H181.914Z" fill="white"/>
<path d="M305.783 100.948H310.358V117.174H301.94V109H278.333V117.174H269.915V100.948H274.063C276.422 97.654 277.601 92.835 277.601 86.491V66.3H305.783V100.948ZM283.091 100.948H297.365V74.169H286.019V86.613C286.019 92.7943 285.043 97.5727 283.091 100.948ZM351.148 103.449C346.838 107.719 341.592 109.854 335.41 109.854C329.229 109.854 323.983 107.719 319.672 103.449C315.402 99.1383 313.267 93.872 313.267 87.65C313.267 81.428 315.402 76.182 319.672 71.912C323.983 67.6013 329.229 65.446 335.41 65.446C341.592 65.446 346.838 67.6013 351.148 71.912C355.459 76.182 357.614 81.428 357.614 87.65C357.614 93.872 355.459 99.1383 351.148 103.449ZM325.589 97.715C328.233 100.318 331.506 101.619 335.41 101.619C339.314 101.619 342.588 100.318 345.231 97.715C347.875 95.0717 349.196 91.7167 349.196 87.65C349.196 83.5833 347.875 80.2283 345.231 77.585C342.588 74.9417 339.314 73.62 335.41 73.62C331.506 73.62 328.233 74.9417 325.589 77.585C322.946 80.2283 321.624 83.5833 321.624 87.65C321.624 91.7167 322.946 95.0717 325.589 97.715ZM405.216 66.3V109H396.859V81.306L384.842 101.131H383.866L371.849 81.367V109H363.431V66.3H372.093L384.354 86.491L396.554 66.3H405.216Z" fill="white"/>
<defs>
<clipPath id="clip0_306_28">
<rect width="78.1861" height="114.419" fill="white" transform="translate(190.698 0.79071)"/>
</clipPath>
</defs>
</svg>
